<mxfile host="drawio-plugin" modified="2023-05-15T16:53:22.376Z" agent="5.0 (Macintosh; Intel Mac OS X 10_15_7) AppleWebKit/537.36 (KHTML, like Gecko) Chrome/104.0.5112.102 Safari/537.36" etag="amkOym7nETvbh9gPskYG" version="20.5.3" type="embed"><diagram id="wR175kNC8FFAMH9rMkLP" name="POC - Diagrama de Sequência"><mxGraphModel dx="1453" dy="1884" grid="1" gridSize="10" guides="1" tooltips="1" connect="1" arrows="1" fold="1" page="1" pageScale="1" pageWidth="827" pageHeight="1169" math="0" shadow="0"><root><mxCell id="4PeCX1dROf_Fe4wzeh-o-0"/><mxCell id="4PeCX1dROf_Fe4wzeh-o-1" parent="4PeCX1dROf_Fe4wzeh-o-0"/><mxCell id="4PeCX1dROf_Fe4wzeh-o-53" value="" style="rounded=1;whiteSpace=wrap;html=1;" parent="4PeCX1dROf_Fe4wzeh-o-1" vertex="1"><mxGeometry x="-60" y="230" width="170" height="140" as="geometry"/></mxCell><mxCell id="4PeCX1dROf_Fe4wzeh-o-3" value="Cliente" style="shape=umlLifeline;participant=umlActor;perimeter=lifelinePerimeter;whiteSpace=wrap;html=1;container=1;collapsible=0;recursiveResize=0;verticalAlign=top;spacingTop=36;outlineConnect=0;" parent="4PeCX1dROf_Fe4wzeh-o-1" vertex="1"><mxGeometry x="-150" y="10" width="20" height="550" as="geometry"/></mxCell><mxCell id="4PeCX1dROf_Fe4wzeh-o-4" value="MS-Pedido" style="shape=umlLifeline;participant=umlBoundary;perimeter=lifelinePerimeter;whiteSpace=wrap;html=1;container=1;collapsible=0;recursiveResize=0;verticalAlign=top;spacingTop=36;outlineConnect=0;fillColor=#d5e8d4;strokeColor=#82b366;" parent="4PeCX1dROf_Fe4wzeh-o-1" vertex="1"><mxGeometry x="-100" y="10" width="50" height="550" as="geometry"/></mxCell><mxCell id="4PeCX1dROf_Fe4wzeh-o-5" value="pedidos" style="shape=umlLifeline;perimeter=lifelinePerimeter;whiteSpace=wrap;html=1;container=1;collapsible=0;recursiveResize=0;outlineConnect=0;fillColor=#fff2cc;strokeColor=#d6b656;" parent="4PeCX1dROf_Fe4wzeh-o-1" vertex="1"><mxGeometry x="140" y="10" width="50" height="550" as="geometry"/></mxCell><mxCell id="4PeCX1dROf_Fe4wzeh-o-6" value="MS-Consumidor" style="shape=umlLifeline;participant=umlControl;perimeter=lifelinePerimeter;whiteSpace=wrap;html=1;container=1;collapsible=0;recursiveResize=0;verticalAlign=top;spacingTop=36;outlineConnect=0;fillColor=#d5e8d4;strokeColor=#82b366;" parent="4PeCX1dROf_Fe4wzeh-o-1" vertex="1"><mxGeometry x="260" y="10" width="40" height="210" as="geometry"/></mxCell><mxCell id="4PeCX1dROf_Fe4wzeh-o-7" value="consumidores" style="shape=umlLifeline;perimeter=lifelinePerimeter;whiteSpace=wrap;html=1;container=1;collapsible=0;recursiveResize=0;outlineConnect=0;fillColor=#fff2cc;strokeColor=#d6b656;" parent="4PeCX1dROf_Fe4wzeh-o-1" vertex="1"><mxGeometry x="350" y="10" width="80" height="300" as="geometry"/></mxCell><mxCell id="4PeCX1dROf_Fe4wzeh-o-8" value="MS-Autorizador" style="shape=umlLifeline;participant=umlControl;perimeter=lifelinePerimeter;whiteSpace=wrap;html=1;container=1;collapsible=0;recursiveResize=0;verticalAlign=top;spacingTop=36;outlineConnect=0;fillColor=#d5e8d4;strokeColor=#82b366;" parent="4PeCX1dROf_Fe4wzeh-o-1" vertex="1"><mxGeometry x="450" y="10" width="40" height="470" as="geometry"/></mxCell><mxCell id="4PeCX1dROf_Fe4wzeh-o-9" value="RepositorioVendas" style="shape=umlLifeline;participant=umlEntity;perimeter=lifelinePerimeter;whiteSpace=wrap;html=1;container=1;collapsible=0;recursiveResize=0;verticalAlign=top;spacingTop=36;outlineConnect=0;fillColor=#f5f5f5;strokeColor=#666666;fontColor=#333333;" parent="4PeCX1dROf_Fe4wzeh-o-1" vertex="1"><mxGeometry x="540" y="10" width="40" height="360" as="geometry"/></mxCell><mxCell id="4PeCX1dROf_Fe4wzeh-o-10" value="MS-Cozinha" style="shape=umlLifeline;participant=umlControl;perimeter=lifelinePerimeter;whiteSpace=wrap;html=1;container=1;collapsible=0;recursiveResize=0;verticalAlign=top;spacingTop=36;outlineConnect=0;fillColor=#d5e8d4;strokeColor=#82b366;" parent="4PeCX1dROf_Fe4wzeh-o-1" vertex="1"><mxGeometry x="610" y="10" width="40" height="470" as="geometry"/></mxCell><mxCell id="4PeCX1dROf_Fe4wzeh-o-11" value="comandas" style="shape=umlLifeline;perimeter=lifelinePerimeter;whiteSpace=wrap;html=1;container=1;collapsible=0;recursiveResize=0;outlineConnect=0;fillColor=#fff2cc;strokeColor=#d6b656;" parent="4PeCX1dROf_Fe4wzeh-o-1" vertex="1"><mxGeometry x="700" y="10" width="80" height="300" as="geometry"/></mxCell><mxCell id="4PeCX1dROf_Fe4wzeh-o-12" value="validações" style="shape=umlLifeline;perimeter=lifelinePerimeter;whiteSpace=wrap;html=1;container=1;collapsible=0;recursiveResize=0;outlineConnect=0;fillColor=#fff2cc;strokeColor=#d6b656;" parent="4PeCX1dROf_Fe4wzeh-o-1" vertex="1"><mxGeometry x="790" y="10" width="80" height="300" as="geometry"/></mxCell><mxCell id="4PeCX1dROf_Fe4wzeh-o-13" value="fazer pedido" style="html=1;verticalAlign=bottom;endArrow=block;rounded=0;" parent="4PeCX1dROf_Fe4wzeh-o-1" source="4PeCX1dROf_Fe4wzeh-o-3" target="4PeCX1dROf_Fe4wzeh-o-4" edge="1"><mxGeometry width="80" relative="1" as="geometry"><mxPoint x="370" y="280" as="sourcePoint"/><mxPoint x="90" y="280" as="targetPoint"/><Array as="points"><mxPoint x="-80" y="100"/></Array></mxGeometry></mxCell><mxCell id="4PeCX1dROf_Fe4wzeh-o-14" value="pedido criado" style="html=1;verticalAlign=bottom;endArrow=block;rounded=0;" parent="4PeCX1dROf_Fe4wzeh-o-1" source="4PeCX1dROf_Fe4wzeh-o-41" target="4PeCX1dROf_Fe4wzeh-o-5" edge="1"><mxGeometry width="80" relative="1" as="geometry"><mxPoint x="39.83333333333326" y="130" as="sourcePoint"/><mxPoint x="104.5" y="130" as="targetPoint"/><Array as="points"><mxPoint x="120" y="130"/><mxPoint x="150" y="130"/></Array></mxGeometry></mxCell><mxCell id="4PeCX1dROf_Fe4wzeh-o-16" value="verificar consumidor" style="html=1;verticalAlign=bottom;endArrow=open;dashed=1;endSize=8;rounded=0;" parent="4PeCX1dROf_Fe4wzeh-o-1" source="4PeCX1dROf_Fe4wzeh-o-6" target="4PeCX1dROf_Fe4wzeh-o-5" edge="1"><mxGeometry relative="1" as="geometry"><mxPoint x="450" y="180" as="sourcePoint"/><mxPoint x="370" y="180" as="targetPoint"/><Array as="points"><mxPoint x="190" y="140"/></Array></mxGeometry></mxCell><mxCell id="4PeCX1dROf_Fe4wzeh-o-17" value="consumidor verificado" style="html=1;verticalAlign=bottom;endArrow=block;rounded=0;" parent="4PeCX1dROf_Fe4wzeh-o-1" source="4PeCX1dROf_Fe4wzeh-o-6" target="4PeCX1dROf_Fe4wzeh-o-7" edge="1"><mxGeometry width="80" relative="1" as="geometry"><mxPoint x="220" y="170" as="sourcePoint"/><mxPoint x="174.5" y="140" as="targetPoint"/><Array as="points"><mxPoint x="310" y="150"/></Array></mxGeometry></mxCell><mxCell id="4PeCX1dROf_Fe4wzeh-o-19" value="comanda aprovada" style="html=1;verticalAlign=bottom;endArrow=block;rounded=0;" parent="4PeCX1dROf_Fe4wzeh-o-1" source="4PeCX1dROf_Fe4wzeh-o-10" target="4PeCX1dROf_Fe4wzeh-o-11" edge="1"><mxGeometry width="80" relative="1" as="geometry"><mxPoint x="580" y="190" as="sourcePoint"/><mxPoint x="309.5" y="170" as="targetPoint"/><Array as="points"><mxPoint x="690" y="180"/></Array></mxGeometry></mxCell><mxCell id="4PeCX1dROf_Fe4wzeh-o-20" value="criar venda" style="html=1;verticalAlign=bottom;endArrow=open;dashed=1;endSize=8;rounded=0;" parent="4PeCX1dROf_Fe4wzeh-o-1" source="4PeCX1dROf_Fe4wzeh-o-8" target="4PeCX1dROf_Fe4wzeh-o-5" edge="1"><mxGeometry relative="1" as="geometry"><mxPoint x="559.5" y="180" as="sourcePoint"/><mxPoint x="174.83333333333326" y="180" as="targetPoint"/><Array as="points"><mxPoint x="340" y="200"/></Array></mxGeometry></mxCell><mxCell id="4PeCX1dROf_Fe4wzeh-o-21" value="verificar comanda" style="html=1;verticalAlign=bottom;endArrow=open;dashed=1;endSize=8;rounded=0;" parent="4PeCX1dROf_Fe4wzeh-o-1" source="4PeCX1dROf_Fe4wzeh-o-10" target="4PeCX1dROf_Fe4wzeh-o-5" edge="1"><mxGeometry relative="1" as="geometry"><mxPoint x="389.5" y="210" as="sourcePoint"/><mxPoint x="174.83333333333326" y="210" as="targetPoint"/><Array as="points"><mxPoint x="410" y="170"/></Array></mxGeometry></mxCell><mxCell id="4PeCX1dROf_Fe4wzeh-o-22" value="venda pendente" style="html=1;verticalAlign=bottom;endArrow=block;rounded=0;" parent="4PeCX1dROf_Fe4wzeh-o-1" source="4PeCX1dROf_Fe4wzeh-o-8" target="4PeCX1dROf_Fe4wzeh-o-9" edge="1"><mxGeometry width="80" relative="1" as="geometry"><mxPoint x="380" y="260" as="sourcePoint"/><mxPoint x="309.5" y="170" as="targetPoint"/><Array as="points"><mxPoint x="510" y="220"/></Array></mxGeometry></mxCell><mxCell id="4PeCX1dROf_Fe4wzeh-o-23" value="receber consumidor&amp;nbsp;" style="html=1;verticalAlign=bottom;endArrow=open;dashed=1;endSize=8;rounded=0;" parent="4PeCX1dROf_Fe4wzeh-o-1" source="4PeCX1dROf_Fe4wzeh-o-8" target="4PeCX1dROf_Fe4wzeh-o-7" edge="1"><mxGeometry relative="1" as="geometry"><mxPoint x="474.67" y="360" as="sourcePoint"/><mxPoint x="170.00333333333325" y="360" as="targetPoint"/><Array as="points"><mxPoint x="420" y="250"/></Array></mxGeometry></mxCell><mxCell id="4PeCX1dROf_Fe4wzeh-o-24" value="receber comanda aprovada" style="html=1;verticalAlign=bottom;endArrow=open;dashed=1;endSize=8;rounded=0;" parent="4PeCX1dROf_Fe4wzeh-o-1" source="4PeCX1dROf_Fe4wzeh-o-8" target="4PeCX1dROf_Fe4wzeh-o-11" edge="1"><mxGeometry relative="1" as="geometry"><mxPoint x="569.6700000000001" y="370" as="sourcePoint"/><mxPoint x="490.0033333333333" y="370" as="targetPoint"/><Array as="points"><mxPoint x="610" y="250"/></Array></mxGeometry></mxCell><mxCell id="4PeCX1dROf_Fe4wzeh-o-25" value="Kafka Streams" style="shape=note2;boundedLbl=1;whiteSpace=wrap;html=1;size=10;verticalAlign=top;align=center;fillColor=#f8cecc;strokeColor=#b85450;" parent="4PeCX1dROf_Fe4wzeh-o-1" vertex="1"><mxGeometry x="310" y="350" width="90" height="40" as="geometry"/></mxCell><mxCell id="4PeCX1dROf_Fe4wzeh-o-27" value="" style="html=1;verticalAlign=bottom;labelBackgroundColor=none;endArrow=open;endFill=0;dashed=1;rounded=0;exitX=0.361;exitY=-0.011;exitDx=0;exitDy=0;exitPerimeter=0;" parent="4PeCX1dROf_Fe4wzeh-o-1" source="4PeCX1dROf_Fe4wzeh-o-25" edge="1"><mxGeometry width="160" relative="1" as="geometry"><mxPoint x="250" y="180" as="sourcePoint"/><mxPoint x="470" y="250" as="targetPoint"/></mxGeometry></mxCell><mxCell id="4PeCX1dROf_Fe4wzeh-o-28" value="receber validação" style="html=1;verticalAlign=bottom;endArrow=open;dashed=1;endSize=8;rounded=0;" parent="4PeCX1dROf_Fe4wzeh-o-1" source="4PeCX1dROf_Fe4wzeh-o-8" target="4PeCX1dROf_Fe4wzeh-o-12" edge="1"><mxGeometry relative="1" as="geometry"><mxPoint x="479.83333333333326" y="280" as="sourcePoint"/><mxPoint x="779.5" y="280" as="targetPoint"/><Array as="points"><mxPoint x="540" y="300"/><mxPoint x="650" y="300"/></Array></mxGeometry></mxCell><mxCell id="4PeCX1dROf_Fe4wzeh-o-29" value="validação ok" style="html=1;verticalAlign=bottom;endArrow=block;rounded=0;" parent="4PeCX1dROf_Fe4wzeh-o-1" target="4PeCX1dROf_Fe4wzeh-o-12" edge="1"><mxGeometry width="80" relative="1" as="geometry"><mxPoint x="470.1633333333333" y="280" as="sourcePoint"/><mxPoint x="569.83" y="280" as="targetPoint"/><Array as="points"><mxPoint x="490.33000000000004" y="280"/></Array></mxGeometry></mxCell><mxCell id="4PeCX1dROf_Fe4wzeh-o-30" value="buscar vendas" style="html=1;verticalAlign=bottom;endArrow=block;rounded=0;" parent="4PeCX1dROf_Fe4wzeh-o-1" target="4PeCX1dROf_Fe4wzeh-o-9" edge="1"><mxGeometry width="80" relative="1" as="geometry"><mxPoint x="470.00333333333316" y="340" as="sourcePoint"/><mxPoint x="580" y="340" as="targetPoint"/><Array as="points"><mxPoint x="490.17" y="340"/></Array></mxGeometry></mxCell><mxCell id="4PeCX1dROf_Fe4wzeh-o-31" value="vendas" style="shape=umlLifeline;perimeter=lifelinePerimeter;whiteSpace=wrap;html=1;container=1;collapsible=0;recursiveResize=0;outlineConnect=0;fillColor=#fff2cc;strokeColor=#d6b656;" parent="4PeCX1dROf_Fe4wzeh-o-1" vertex="1"><mxGeometry x="880" y="10" width="80" height="520" as="geometry"/></mxCell><mxCell id="4PeCX1dROf_Fe4wzeh-o-32" value="Venda" style="shape=umlLifeline;participant=umlEntity;perimeter=lifelinePerimeter;whiteSpace=wrap;html=1;container=1;collapsible=0;recursiveResize=0;verticalAlign=top;spacingTop=36;outlineConnect=0;fillColor=#dae8fc;strokeColor=#6c8ebf;" parent="4PeCX1dROf_Fe4wzeh-o-1" vertex="1"><mxGeometry x="570" y="310" width="40" height="90" as="geometry"/></mxCell><mxCell id="4PeCX1dROf_Fe4wzeh-o-33" value="" style="html=1;verticalAlign=bottom;endArrow=block;rounded=0;" parent="4PeCX1dROf_Fe4wzeh-o-1" source="4PeCX1dROf_Fe4wzeh-o-9" target="4PeCX1dROf_Fe4wzeh-o-32" edge="1"><mxGeometry width="80" relative="1" as="geometry"><mxPoint x="480.0033333333331" y="350" as="sourcePoint"/><mxPoint x="590" y="350" as="targetPoint"/></mxGeometry></mxCell><mxCell id="4PeCX1dROf_Fe4wzeh-o-34" value="aprovar" style="html=1;verticalAlign=bottom;endArrow=block;rounded=0;" parent="4PeCX1dROf_Fe4wzeh-o-1" source="4PeCX1dROf_Fe4wzeh-o-8" target="4PeCX1dROf_Fe4wzeh-o-32" edge="1"><mxGeometry width="80" relative="1" as="geometry"><mxPoint x="480.0033333333331" y="390" as="sourcePoint"/><mxPoint x="590" y="390" as="targetPoint"/><Array as="points"><mxPoint x="500.17" y="390"/></Array></mxGeometry></mxCell><mxCell id="4PeCX1dROf_Fe4wzeh-o-35" value="venda aprovada" style="html=1;verticalAlign=bottom;endArrow=block;rounded=0;" parent="4PeCX1dROf_Fe4wzeh-o-1" source="4PeCX1dROf_Fe4wzeh-o-8" target="4PeCX1dROf_Fe4wzeh-o-31" edge="1"><mxGeometry width="80" relative="1" as="geometry"><mxPoint x="480.33333333333326" y="420" as="sourcePoint"/><mxPoint x="630" y="420" as="targetPoint"/><Array as="points"><mxPoint x="510.67" y="420"/></Array></mxGeometry></mxCell><mxCell id="4PeCX1dROf_Fe4wzeh-o-36" value="receber venda aprovada" style="html=1;verticalAlign=bottom;endArrow=open;dashed=1;endSize=8;rounded=0;" parent="4PeCX1dROf_Fe4wzeh-o-1" source="4PeCX1dROf_Fe4wzeh-o-10" target="4PeCX1dROf_Fe4wzeh-o-31" edge="1"><mxGeometry relative="1" as="geometry"><mxPoint x="610.0033333333332" y="510" as="sourcePoint"/><mxPoint x="1029.67" y="510" as="targetPoint"/><Array as="points"><mxPoint x="870" y="450"/></Array></mxGeometry></mxCell><mxCell id="4PeCX1dROf_Fe4wzeh-o-37" value="receber venda aprovada" style="html=1;verticalAlign=bottom;endArrow=open;dashed=1;endSize=8;rounded=0;" parent="4PeCX1dROf_Fe4wzeh-o-1" source="4PeCX1dROf_Fe4wzeh-o-4" target="4PeCX1dROf_Fe4wzeh-o-31" edge="1"><mxGeometry relative="1" as="geometry"><mxPoint x="190.00333333333327" y="470" as="sourcePoint"/><mxPoint x="499.67" y="470" as="targetPoint"/><Array as="points"><mxPoint x="240" y="510"/></Array></mxGeometry></mxCell><mxCell id="4PeCX1dROf_Fe4wzeh-o-39" value="&lt;b&gt;publisher&lt;/b&gt;" style="html=1;verticalAlign=bottom;endArrow=block;rounded=0;" parent="4PeCX1dROf_Fe4wzeh-o-1" edge="1"><mxGeometry width="80" relative="1" as="geometry"><mxPoint x="-30" y="284" as="sourcePoint"/><mxPoint x="80" y="284" as="targetPoint"/><Array as="points"><mxPoint x="0.5" y="284"/></Array></mxGeometry></mxCell><mxCell id="4PeCX1dROf_Fe4wzeh-o-40" value="&lt;b&gt;subscriber&lt;/b&gt;" style="html=1;verticalAlign=bottom;endArrow=open;dashed=1;endSize=8;rounded=0;" parent="4PeCX1dROf_Fe4wzeh-o-1" edge="1"><mxGeometry relative="1" as="geometry"><mxPoint x="-29" y="314" as="sourcePoint"/><mxPoint x="81" y="314" as="targetPoint"/><Array as="points"><mxPoint x="71.5" y="314"/></Array></mxGeometry></mxCell><mxCell id="4PeCX1dROf_Fe4wzeh-o-41" value="Transformador&lt;br&gt;Customizado" style="shape=umlLifeline;participant=umlBoundary;perimeter=lifelinePerimeter;whiteSpace=wrap;html=1;container=1;collapsible=0;recursiveResize=0;verticalAlign=top;spacingTop=36;outlineConnect=0;fillColor=#d5e8d4;strokeColor=#82b366;" parent="4PeCX1dROf_Fe4wzeh-o-1" vertex="1"><mxGeometry x="40" y="10" width="50" height="180" as="geometry"/></mxCell><mxCell id="4PeCX1dROf_Fe4wzeh-o-42" value="ler logs da caixa de saida" style="html=1;verticalAlign=bottom;endArrow=open;dashed=1;endSize=8;rounded=0;" parent="4PeCX1dROf_Fe4wzeh-o-1" source="4PeCX1dROf_Fe4wzeh-o-41" target="4PeCX1dROf_Fe4wzeh-o-4" edge="1"><mxGeometry relative="1" as="geometry"><mxPoint x="450" y="560" as="sourcePoint"/><mxPoint x="560" y="560" as="targetPoint"/><Array as="points"><mxPoint x="-20" y="120"/></Array></mxGeometry></mxCell><mxCell id="4PeCX1dROf_Fe4wzeh-o-43" value="Transactional&lt;br&gt;Outbox (via log tail, usando Debezium)" style="shape=note2;boundedLbl=1;whiteSpace=wrap;html=1;size=10;verticalAlign=top;align=center;fillColor=#f8cecc;strokeColor=#b85450;" parent="4PeCX1dROf_Fe4wzeh-o-1" vertex="1"><mxGeometry x="-280" y="120" width="100" height="80" as="geometry"/></mxCell><mxCell id="4PeCX1dROf_Fe4wzeh-o-44" value="" style="html=1;verticalAlign=bottom;labelBackgroundColor=none;endArrow=open;endFill=0;dashed=1;rounded=0;" parent="4PeCX1dROf_Fe4wzeh-o-1" source="4PeCX1dROf_Fe4wzeh-o-43" target="4PeCX1dROf_Fe4wzeh-o-41" edge="1"><mxGeometry width="160" relative="1" as="geometry"><mxPoint x="352.4899999999998" y="359.55999999999995" as="sourcePoint"/><mxPoint x="480" y="260" as="targetPoint"/></mxGeometry></mxCell><mxCell id="4PeCX1dROf_Fe4wzeh-o-45" value="Idempotent&lt;br&gt;Consumer" style="shape=note2;boundedLbl=1;whiteSpace=wrap;html=1;size=10;verticalAlign=top;align=center;fillColor=#f8cecc;strokeColor=#b85450;" parent="4PeCX1dROf_Fe4wzeh-o-1" vertex="1"><mxGeometry x="190" y="-60" width="90" height="50" as="geometry"/></mxCell><mxCell id="4PeCX1dROf_Fe4wzeh-o-47" value="" style="html=1;verticalAlign=bottom;labelBackgroundColor=none;endArrow=open;endFill=0;dashed=1;rounded=0;exitX=0.5;exitY=1;exitDx=0;exitDy=0;exitPerimeter=0;" parent="4PeCX1dROf_Fe4wzeh-o-1" source="4PeCX1dROf_Fe4wzeh-o-45" edge="1"><mxGeometry width="160" relative="1" as="geometry"><mxPoint x="352.4899999999998" y="359.55999999999995" as="sourcePoint"/><mxPoint x="260" y="140" as="targetPoint"/></mxGeometry></mxCell><mxCell id="4PeCX1dROf_Fe4wzeh-o-48" value="MS-Estoque" style="shape=umlLifeline;participant=umlControl;perimeter=lifelinePerimeter;whiteSpace=wrap;html=1;container=1;collapsible=0;recursiveResize=0;verticalAlign=top;spacingTop=36;outlineConnect=0;fillColor=#d5e8d4;strokeColor=#82b366;" parent="4PeCX1dROf_Fe4wzeh-o-1" vertex="1"><mxGeometry x="970" y="10" width="40" height="500" as="geometry"/></mxCell><mxCell id="4PeCX1dROf_Fe4wzeh-o-49" value="separar ingredientes" style="html=1;verticalAlign=bottom;endArrow=block;rounded=0;" parent="4PeCX1dROf_Fe4wzeh-o-1" source="4PeCX1dROf_Fe4wzeh-o-10" target="4PeCX1dROf_Fe4wzeh-o-48" edge="1"><mxGeometry width="80" relative="1" as="geometry"><mxPoint x="670" y="470" as="sourcePoint"/><mxPoint x="989.5" y="430" as="targetPoint"/><Array as="points"><mxPoint x="760" y="470"/></Array></mxGeometry></mxCell><mxCell id="4PeCX1dROf_Fe4wzeh-o-50" value="REST com Circuit Breaker" style="shape=note2;boundedLbl=1;whiteSpace=wrap;html=1;size=10;verticalAlign=top;align=center;fillColor=#f8cecc;strokeColor=#b85450;" parent="4PeCX1dROf_Fe4wzeh-o-1" vertex="1"><mxGeometry x="670" y="550" width="90" height="50" as="geometry"/></mxCell><mxCell id="4PeCX1dROf_Fe4wzeh-o-51" value="" style="html=1;verticalAlign=bottom;labelBackgroundColor=none;endArrow=open;endFill=0;dashed=1;rounded=0;exitX=0.5;exitY=0;exitDx=0;exitDy=0;exitPerimeter=0;" parent="4PeCX1dROf_Fe4wzeh-o-1" source="4PeCX1dROf_Fe4wzeh-o-50" edge="1"><mxGeometry width="160" relative="1" as="geometry"><mxPoint x="352.4899999999998" y="359.55999999999995" as="sourcePoint"/><mxPoint x="670" y="470" as="targetPoint"/></mxGeometry></mxCell><mxCell id="4PeCX1dROf_Fe4wzeh-o-52" value="pedido realizado" style="html=1;verticalAlign=bottom;endArrow=block;rounded=0;" parent="4PeCX1dROf_Fe4wzeh-o-1" source="4PeCX1dROf_Fe4wzeh-o-4" target="4PeCX1dROf_Fe4wzeh-o-3" edge="1"><mxGeometry width="80" relative="1" as="geometry"><mxPoint x="174.5" y="530" as="sourcePoint"/><mxPoint x="-35.5" y="530" as="targetPoint"/><Array as="points"><mxPoint x="-70" y="550"/></Array></mxGeometry></mxCell><mxCell id="4PeCX1dROf_Fe4wzeh-o-54" value="Event Sourcing" style="shape=note2;boundedLbl=1;whiteSpace=wrap;html=1;size=10;verticalAlign=top;align=center;fillColor=#f8cecc;strokeColor=#b85450;" parent="4PeCX1dROf_Fe4wzeh-o-1" vertex="1"><mxGeometry x="-240" y="220" width="90" height="50" as="geometry"/></mxCell><mxCell id="4PeCX1dROf_Fe4wzeh-o-55" value="" style="html=1;verticalAlign=bottom;labelBackgroundColor=none;endArrow=open;endFill=0;dashed=1;rounded=0;exitX=0;exitY=0;exitDx=80;exitDy=0;exitPerimeter=0;" parent="4PeCX1dROf_Fe4wzeh-o-1" source="4PeCX1dROf_Fe4wzeh-o-54" target="4PeCX1dROf_Fe4wzeh-o-4" edge="1"><mxGeometry width="160" relative="1" as="geometry"><mxPoint x="-155" y="150" as="sourcePoint"/><mxPoint x="74.5" y="150" as="targetPoint"/></mxGeometry></mxCell><mxCell id="lODguC4z-Mk9PXgyrWB0-0" value="MS-Atacadista" style="shape=umlLifeline;participant=umlControl;perimeter=lifelinePerimeter;whiteSpace=wrap;html=1;container=1;collapsible=0;recursiveResize=0;verticalAlign=top;spacingTop=36;outlineConnect=0;fillColor=#d5e8d4;strokeColor=#82b366;" parent="4PeCX1dROf_Fe4wzeh-o-1" vertex="1"><mxGeometry x="1070" y="10" width="40" height="510" as="geometry"/></mxCell><mxCell id="MFFT6KcTD7HFT2C8GLio-0" value="separar ingredientes" style="html=1;verticalAlign=bottom;endArrow=block;rounded=0;" parent="4PeCX1dROf_Fe4wzeh-o-1" source="4PeCX1dROf_Fe4wzeh-o-48" target="lODguC4z-Mk9PXgyrWB0-0" edge="1"><mxGeometry width="80" relative="1" as="geometry"><mxPoint x="639.5" y="480" as="sourcePoint"/><mxPoint x="999.5" y="480" as="targetPoint"/><Array as="points"><mxPoint x="1010" y="490"/></Array></mxGeometry></mxCell><mxCell id="MFFT6KcTD7HFT2C8GLio-1" value="REST com Feign" style="shape=note2;boundedLbl=1;whiteSpace=wrap;html=1;size=10;verticalAlign=top;align=center;fillColor=#f8cecc;strokeColor=#b85450;" parent="4PeCX1dROf_Fe4wzeh-o-1" vertex="1"><mxGeometry x="1100" y="340" width="90" height="50" as="geometry"/></mxCell><mxCell id="MFFT6KcTD7HFT2C8GLio-2" value="" style="html=1;verticalAlign=bottom;labelBackgroundColor=none;endArrow=open;endFill=0;dashed=1;rounded=0;exitX=0.5;exitY=1;exitDx=0;exitDy=0;exitPerimeter=0;" parent="4PeCX1dROf_Fe4wzeh-o-1" source="MFFT6KcTD7HFT2C8GLio-1" edge="1"><mxGeometry width="160" relative="1" as="geometry"><mxPoint x="725" y="560" as="sourcePoint"/><mxPoint x="1050" y="490" as="targetPoint"/><Array as="points"><mxPoint x="1090" y="530"/></Array></mxGeometry></mxCell></root></mxGraphModel></diagram></mxfile>